<?xml version="1.0" encoding="UTF-8"?>
<svg id="Calque_2" data-name="Calque 2" xmlns="http://www.w3.org/2000/svg" viewBox="0 0 384 384">
  <defs>
    <style>
      .cls-1 {
        fill: #0f2238;
        stroke-width: 3px;
        stroke: #0f2238;
      }
    </style>
  </defs>
  <g id="Calque_1-2" data-name="Calque 1">
    <g>
      <path class="cls-1" d="M180,0C188,0,196,0,204,0c6.41.84,12.86,1.46,19.23,2.54,36.6,6.2,68.93,21.51,96.52,46.34,32.93,29.64,53.52,66.34,61.29,110.05,1.24,6.97,1.99,14.04,2.96,21.06v24c-.21.97-.55,1.92-.62,2.9-2.53,32.92-12.69,63.32-31.12,90.67-30.59,45.41-72.9,73.38-126.82,83.45-7.08,1.32-14.29,2-21.44,2.98h-24c-.96-.21-1.91-.54-2.88-.62-38.24-3.05-72.67-16.15-102.82-39.85-38.8-30.5-62.74-70.13-71.42-118.81-1.22-6.86-1.93-13.81-2.87-20.72,0-8,0-16,0-24,.22-1.09.55-2.16.64-3.26,3.47-42.2,19.05-79.37,46.98-111.13C77.43,31.7,114.7,10.65,159.29,2.9,166.16,1.7,173.1.95,180,0ZM12.78,191.88c-.04,98.77,80.16,179.18,178.89,179.35,98.79.16,179.45-80.32,179.55-179.15.09-98.72-80.16-179.13-178.94-179.29C93.38,12.62,12.83,92.99,12.78,191.88Z"/>
      <path class="cls-1" d="M191.9,358.44c-91.83-.12-166.51-74.94-166.33-166.62.19-91.87,75.1-166.6,166.68-166.25,91.75.34,166.2,74.91,166.19,166.45,0,91.77-74.84,166.54-166.54,166.42ZM345.57,195.42c2.53-83.59-64.75-154.46-149.01-156.97-84.68-2.52-155.53,64.23-158.11,148.96-2.58,84.79,64.23,155.55,149.32,158.14,84.66,2.58,155.22-64.55,157.8-150.14Z"/>
      <path class="cls-1" d="M191.83,236.93c-8.43,20.61-16.5,40.35-24.58,60.09-1.51,3.7-2.94,7.43-4.56,11.08-4.37,9.88-15.21,14.36-24.95,10.37-9.74-3.98-14.44-14.75-10.52-24.85,9.89-25.47,19.75-50.95,29.99-76.28,3.74-9.25,2.66-18.67,2.47-28.09-.08-3.68-3.28-5.03-6.67-5.34-11.44-1.06-22.89-2.09-34.33-3.12-6.34-.57-12.7-.98-19.04-1.67-10.75-1.16-18.12-10.04-17.34-20.69.76-10.38,9.3-18.17,20.08-17.45,16.07,1.08,32.12,2.58,48.16,4.18,27.69,2.76,55.35,2.8,83.05-.02,15.9-1.62,31.83-3.11,47.78-4.15,12.48-.81,21.41,9,20.2,21.36-.86,8.8-8.06,15.88-17.45,16.78-17.16,1.64-34.33,3.15-51.5,4.63-6.8.58-8.22,2.31-8.62,9.08-.68,11.45,1.53,22.09,5.98,32.74,9.33,22.32,17.92,44.96,26.6,67.56,5.45,14.19-5.02,27.96-19.98,26.36-7.97-.85-13-5.66-15.98-12.96-8.93-21.82-17.94-43.61-26.92-65.42-.46-1.12-.98-2.21-1.87-4.18ZM103.11,153.73c-4.9-.24-7.76,1.73-8.02,5.79-.27,4.23,2.45,6.59,7.8,7.03,8.59.7,17.17,1.5,25.76,2.3,9.45.89,18.93,1.57,28.33,2.82,7.91,1.05,14.72,7.28,15.28,14.89.88,11.9,1.6,23.83-3.12,35.46-10.14,24.97-19.78,50.14-29.62,75.23-1.79,4.58-.76,7.94,2.86,9.52,3.75,1.64,7.02-.09,9.01-4.78,1.31-3.1,2.56-6.23,3.85-9.35,8.23-19.96,16.43-39.92,24.7-59.86,2.5-6.03,6.75-8.91,12.64-8.65,5.77.26,9.39,3.45,11.53,8.66,8.97,21.81,17.96,43.61,26.96,65.41.81,1.96,1.5,4,2.55,5.82,1.53,2.64,3.96,3.78,7,2.98,2.82-.74,4.65-2.61,4.66-5.58,0-1.68-.51-3.45-1.13-5.04-9.62-24.64-19.04-49.36-29.08-73.83-4.82-11.76-3.91-23.75-3.4-35.81.1-2.33,1.46-4.79,2.76-6.85,3.96-6.26,10.14-8.33,17.24-8.9,16.93-1.37,33.85-2.97,50.76-4.53,4.61-.43,7.19-3.79,6.31-7.93-.71-3.34-3.36-5.14-7.77-4.77-18.3,1.56-36.55,3.88-54.88,4.71-20.43.93-40.96,1.32-61.38.51-20.45-.81-40.82-3.4-61.6-5.24Z"/>
      <path class="cls-1" d="M230.32,95.95c.01,21.28-17.02,38.36-38.28,38.37-21.24.01-38.35-17.06-38.37-38.3-.02-21.26,17.02-38.34,38.29-38.35,21.28-.02,38.35,17.02,38.36,38.28ZM166.46,95.99c0,14.14,11.33,25.52,25.44,25.55,14.17.04,25.57-11.24,25.64-25.35.07-14.34-11.31-25.76-25.63-25.73-14.12.03-25.45,11.39-25.46,25.53Z"/>
    </g>
  </g>
</svg>