<?xml version="1.0" encoding="UTF-8"?>
<svg id="Calque_1" data-name="Calque 1" xmlns="http://www.w3.org/2000/svg" viewBox="0 0 352.5 352.61">
  <defs>
    <style>
      .cls-1 {
        fill: #6dd6dc;
      }

      .cls-1{
        stroke-width: 0px;
      }
    </style>
  </defs>
  <path class="cls-1" d="M169.19.15c117.61-4.89,207.47,108.22,176.3,221.73-19.68,76.29-92.8,131.64-171.49,130.3-63.13-.03-123.99-37.2-153.05-93.25C-39.98,144.93,39.63,5.06,168.99.16h.2ZM175.93,32.29c-110.67.06-180.26,121.21-123.79,216.63,28.07,48.61,86.07,77.31,141.73,69.61,62.21-7.37,114.49-57.99,123.87-119.93,14.5-85.99-54.47-166.78-141.6-166.31h-.2Z"/>
  <path class="cls-1" d="M160,128c0-16.08-.08-32.16.04-48.24.05-6.78,3.54-11.68,9.72-14.23,6.16-2.55,12.02-1.49,17.02,3.06,3.73,3.4,5.05,7.79,5.03,12.79-.07,19.7-.03,39.39-.03,59.09,0,8.48-.15,16.96.11,25.43.06,1.97,1.04,4.37,2.41,5.77,13.27,13.52,26.73,26.86,40.11,40.28,4.48,4.49,6.23,9.84,4.46,16.06-1.72,6.05-5.79,9.8-11.86,11.22-5.5,1.29-10.49-.12-14.47-4.07-16.1-15.98-32.12-32.05-48.13-48.12-3.36-3.37-4.49-7.58-4.47-12.28.08-15.58.03-31.16.03-46.75h.03Z"/>
</svg>