<?xml version="1.0" encoding="UTF-8"?>
<svg id="Calque_2" data-name="Calque 2" xmlns="http://www.w3.org/2000/svg" viewBox="0 0 512 512">
  <defs>
    <style>
      .cls-1 {
        fill: #0f2238;
        stroke-width: 0px;
      }
    </style>
  </defs>
  <g id="Calque_1-2" data-name="Calque 1">
    <g>
      <path class="cls-1" d="M221,512c-7.15-2.93-15.01-4.8-21.31-9-12.96-8.65-18.48-21.85-18.67-37.27-.11-9.33.03-18.67-.03-28-.25-34.36-11.79-64.33-35.85-88.94-16.57-16.95-30.86-35.23-40.5-57.09-32.65-73.97-4.99-163.43,63.86-205.81,93.29-57.41,215.06-11.5,245.53,93.65,17.22,59.45,3.43,112.96-37.86,159.06-11.66,13.02-24.49,24.94-32.72,40.76-8.16,15.69-12.39,32.19-12.47,49.86-.07,14.65.42,29.38-.85,43.94-1.7,19.46-17.35,34.82-36.8,38.05-.79.13-1.54.52-2.31.79h-70ZM315.98,234.98c6.27-6.34,12.05-12.28,17.93-18.11,7.31-7.24,16.2-7.78,22.57-1.5,6.39,6.3,5.95,15.28-1.23,22.56-7.37,7.48-14.86,14.83-22.22,22.31-2.56,2.6-5.2,5.22-7.22,8.23-17.65,26.26-35.2,52.58-52.65,78.97-1.27,1.93-2.06,4.57-2.08,6.88-.16,20.83-.1,41.65-.08,62.48,0,1.28.16,2.56.26,3.95h29.73c.3-2.03.67-3.83.81-5.64,1.48-18.04,7.2-34.73,15.62-50.65,8.84-16.72,21.33-30.47,34.5-43.77,20.56-20.75,33.18-45.55,37.35-74.54,5.53-38.43-3.38-73.37-27.44-103.64-41.2-51.84-111.76-66.17-170.21-35.53-49.64,26.03-78.5,84.94-69.09,139.89,5.03,29.4,17.73,54.57,38.95,75.41,20.11,19.75,34.98,42.71,42.88,69.85,2.72,9.34,4.33,19.01,6.47,28.61h29.88c.11-.87.25-1.5.25-2.13.02-21.83.08-43.66-.09-65.48-.02-2.11-1.2-4.44-2.42-6.28-17.1-25.82-34.29-51.59-51.52-77.32-1.75-2.61-3.81-5.05-6.01-7.3-8.4-8.56-17.1-16.84-25.34-25.55-8.42-8.89-4.57-22.36,6.99-25.22,5.92-1.47,10.79.67,14.92,4.84,6.05,6.11,12.09,12.24,18.58,18.81,6.16-6.31,11.67-12.07,17.31-17.71,8.59-8.59,16.54-8.63,25.07-.12,5.75,5.73,11.38,11.57,17.41,17.7,6.3-6.34,11.99-12.14,17.77-17.86,8.34-8.26,16.37-8.25,24.73.06,5.76,5.73,11.43,11.55,17.6,17.79ZM211.19,451.24c0,6.17-.47,12.16.12,18.03.73,7.26,6.92,12.58,14.46,12.64,20.13.17,40.26.15,60.4,0,7.05-.05,13.09-4.42,14.06-11.16.92-6.41.2-13.06.2-19.53h-89.23ZM225.75,246.72c-2.78,3.07-4.92,5.84-7.48,8.14-2.47,2.22-2.5,3.89-.62,6.66,12.12,17.9,24.03,35.93,36.04,53.91.68,1.02,1.56,1.89,2.6,3.13,13.64-20.49,26.97-40.51,39.77-59.73-3.68-4.13-6.84-7.68-10.4-11.68-5.79,5.93-11.19,11.56-16.7,17.09-9.04,9.06-16.79,9.1-25.75.15-5.62-5.61-11.16-11.3-17.45-17.67Z"/>
      <path class="cls-1" d="M140,0c5.68,2.62,9.16,7.24,12.04,12.63,3.6,6.74,7.67,13.22,11.37,19.91,4.58,8.25,2.54,16.96-4.81,21.3-7.56,4.46-16.24,1.88-21.23-6.48-4.09-6.85-7.99-13.8-11.98-20.71C118.06,13.95,119.67,7.45,132,0h8Z"/>
      <path class="cls-1" d="M380,0c.66.43,1.3.92,2,1.29,8.61,4.49,11.44,12.91,6.8,21.43-4.69,8.6-9.62,17.09-14.72,25.46-4.72,7.74-13.39,9.96-20.68,5.65-7.05-4.16-9.45-12.73-5.27-20.41,4.77-8.75,9.62-17.48,15.06-25.82C365.23,4.48,369.01,2.5,372,0c2.67,0,5.33,0,8,0Z"/>
      <path class="cls-1" d="M0,222c3.98-8.63,10.82-11.68,20.11-11.1,7.95.49,15.96.02,23.94.13,9.29.12,15.92,6.43,15.92,14.98s-6.63,14.86-15.92,14.98c-7.98.1-15.99-.37-23.94.13-9.29.58-16.13-2.47-20.11-11.1v-8Z"/>
      <path class="cls-1" d="M512,230c-3.98,8.63-10.82,11.68-20.11,11.1-7.95-.49-15.96-.02-23.94-.13-9.29-.12-15.92-6.43-15.92-14.98s6.63-14.86,15.92-14.98c7.98-.1,15.99.37,23.94-.13,9.29-.58,16.13,2.47,20.11,11.1v8Z"/>
      <path class="cls-1" d="M422.99,119.1c.16-3.75,2.46-8.05,7.05-10.79,8.84-5.27,17.69-10.54,26.76-15.39,7.41-3.97,15.88-1.38,19.94,5.5,4.19,7.1,2.14,15.83-5.28,20.39-8.62,5.3-17.36,10.44-26.31,15.16-10.52,5.55-22.35-1.7-22.15-14.88Z"/>
      <path class="cls-1" d="M89.05,119.33c-.14,12.55-11.16,20.03-20.82,15.25-9.94-4.92-19.51-10.68-28.86-16.68-6.63-4.26-8.02-12.82-4.11-19.47,3.87-6.57,12.12-9.53,19.02-5.92,9.7,5.07,19.11,10.72,28.46,16.41,4.41,2.69,6.28,7.13,6.31,10.41Z"/>
      <path class="cls-1" d="M89,332.89c-.21,3.92-2.57,8.16-7.17,10.9-8.7,5.17-17.41,10.35-26.31,15.17-7.62,4.12-16.27,1.56-20.32-5.51-4.11-7.17-1.99-15.77,5.49-20.34,8.63-5.28,17.36-10.45,26.33-15.13,10.53-5.5,22.31,1.9,21.99,14.93Z"/>
      <path class="cls-1" d="M422.94,332.94c.19-12.86,11.25-20.29,20.89-15.49,9.93,4.94,19.51,10.69,28.85,16.7,6.61,4.25,7.97,12.87,4.03,19.48-3.8,6.38-11.94,9.49-18.6,6.04-10.01-5.19-19.71-10.99-29.31-16.92-4.19-2.59-5.84-7.07-5.87-9.81Z"/>
    </g>
  </g>
</svg>