<?xml version="1.0" encoding="UTF-8"?>
<svg id="Calque_2" data-name="Calque 2" xmlns="http://www.w3.org/2000/svg" viewBox="0 0 408.83 287.46">
  <defs>
    <style>
      .cls-1 {
        fill: #0f2238;
        stroke-width: 0px;
      }
    </style>
  </defs>
  <g id="Calque_1-2" data-name="Calque 1">
    <path class="cls-1" d="M408.83,255.51c-2.34,5.71-3.85,11.96-7.19,17-6.6,9.96-16.72,14.37-28.55,14.91-.8.04-1.6.02-2.39.02-110.81,0-221.63,0-332.44.01-12.59,0-23.1-4.3-30.9-14.45C2.3,266.44.06,258.88.05,250.7.01,179.4-.06,108.09.08,36.79.12,15.22,15.91.05,37.83.03,83.73-.02,129.62.01,175.52.01c65.05,0,130.1,0,195.15,0,15.61,0,27.47,6.47,34.51,20.64,1.74,3.5,2.46,7.51,3.65,11.29v223.56ZM41.5,24.13c.67.85.89,1.19,1.17,1.47,45.27,45.04,90.49,90.14,135.93,135.02,3.76,3.72,8.65,6.86,13.6,8.69,14.87,5.5,27.93,1.57,39.01-9.44,44.63-44.37,89.24-88.76,133.85-133.14.7-.69,1.34-1.44,2.39-2.59H41.5ZM144.26,160.03c-34.32,34.99-67.97,69.31-101.19,103.18h322.58c-33.04-34.16-66.54-68.8-100.52-103.93-4.76,5.03-7.96,8.6-11.36,11.95-4.17,4.1-8.21,8.42-12.83,11.95-24.56,18.77-56.84,16.42-79.51-5.63-5.6-5.45-10.96-11.16-17.17-17.51ZM124.88,144.41C91.67,110.67,57.91,76.36,24.29,42.21v204.69c34.47-35.11,68.17-69.45,100.59-102.48ZM384.73,42l-.87-.57c-33.83,34.37-67.65,68.73-101.62,103.24,33.66,33.44,67.8,67.37,102.49,101.84V42Z"/>
  </g>
</svg>