<?xml version="1.0" encoding="UTF-8"?>
<svg id="Calque_1" data-name="Calque 1" xmlns="http://www.w3.org/2000/svg" viewBox="0 0 246 322">
  <defs>
    <style>
      .cls-1 {
        fill: #6dd6dc;
      }

      .cls-1{
        stroke-width: 0px;
      }

    </style>
  </defs>
  <path class="cls-1" d="M128,0c8.17,1.33,16.48,2.14,24.5,4.08,58.84,14.21,98.74,70.71,92.24,130.85-2.89,26.81-13.78,50.89-27.27,73.86-18.82,32.05-42.15,60.64-68,87.21-8.44,8.67-17.26,16.97-26.47,25.99-9.22-9.03-18.05-17.32-26.48-26-28.15-29.03-53.46-60.26-72.89-95.91-10.56-19.38-19.1-39.6-21.85-61.72C-2.96,100.25,7.84,66.85,34.05,38.84,55.63,15.77,82.55,3.15,114.16.76c1.29-.1,2.56-.5,3.84-.76,3.33,0,6.67,0,10,0ZM123.15,294.58c10.34-11.13,20.41-21.51,29.95-32.35,22.73-25.82,43.28-53.19,58.07-84.48,11.55-24.44,17.78-49.68,11.89-76.91-8.96-41.43-43.38-73.17-86.72-79.6-39.96-5.93-82.28,15.18-102.36,51.06-17.29,30.91-17.09,62.63-3.81,94.66,20.58,49.6,55.3,88.97,92.98,127.62Z"/>
  <path class="cls-1" d="M175.92,122.74c0,29.31-23.81,53.17-53,53.09-29.25-.08-52.86-23.88-52.83-53.25.03-29.12,23.55-52.6,52.75-52.66,29.48-.06,53.08,23.42,53.08,52.82ZM90.05,122.49c-.1,18.09,14.91,33.3,32.9,33.35,17.7.05,32.85-14.99,32.99-32.76.14-18.11-14.79-33.18-32.9-33.2-17.91-.02-32.89,14.79-32.99,32.61Z"/>
</svg>