<?xml version="1.0" encoding="UTF-8"?>
<svg id="Calque_2" data-name="Calque 2" xmlns="http://www.w3.org/2000/svg" viewBox="0 0 36.81 36.81">
  <defs>
    <style>
      .cls-1 {
        fill: #6dd6dc;
        stroke-width: 0px;
      }
    </style>
  </defs>
  <g id="Mode_Isolation" data-name="Mode Isolation">
    <path class="cls-1" d="M29.57,24.37c-2.29,2.29-5.33,3.55-8.56,3.55s-6.27-1.26-8.56-3.55c-2.29-2.29-3.55-5.33-3.55-8.56s1.26-6.28,3.55-8.56c2.36-2.36,5.46-3.54,8.56-3.54s6.2,1.18,8.56,3.54c4.72,4.72,4.72,12.4,0,17.12M32.19,4.62C26.02-1.54,15.99-1.54,9.83,4.62c-2.99,2.99-4.63,6.96-4.63,11.18,0,3.59,1.19,6.99,3.37,9.76-.74-.03-1.49.24-2.06.81l-5.7,5.7c-1.08,1.08-1.08,2.84,0,3.93.54.54,1.25.81,1.96.81s1.42-.27,1.97-.81l5.7-5.7c.57-.57.83-1.32.81-2.06,2.77,2.18,6.17,3.37,9.76,3.37,4.22,0,8.19-1.65,11.18-4.63,6.17-6.17,6.17-16.2,0-22.36"/>
  </g>
</svg>