<?xml version="1.0" encoding="UTF-8"?>
<svg id="Calque_2" data-name="Calque 2" xmlns="http://www.w3.org/2000/svg" viewBox="0 0 331.73 384">
  <defs>
    <style>
      .cls-1 {
        fill: #0f2238;
        stroke-width: 0px;
      }
    </style>
  </defs>
  <g id="Calque_1-2" data-name="Calque 1">
    <g>
      <path class="cls-1" d="M165.09,0c.5,0,1,0,1.5,0,.8.31,1.58.7,2.41.92,52.73,14.25,105.46,28.51,158.22,42.64,3.33.89,4.5,2.12,4.49,5.74-.17,32.23.32,64.47-.28,96.69-.29,15.67-.99,31.61-4.04,46.92-17.01,85.2-65.19,146.37-143.87,183.38-5.61,2.64-11.28,5.14-16.92,7.7h-1.5c-5.29-2.44-10.54-4.96-15.87-7.3C59.55,337.47,1.03,249.11.17,151.22-.14,116.99.14,82.75,0,48.52c-.01-3.04,1.12-3.99,3.8-4.71C48.85,31.74,93.88,19.6,138.9,7.43c8.76-2.37,17.46-4.95,26.19-7.43ZM306.62,114.39c-.12,0-.24,0-.36,0,0-15.37-.1-30.74.08-46.11.04-3.08-.88-4.3-3.84-5.09-44.46-11.91-88.87-23.95-133.33-35.86-2.04-.55-4.49-.53-6.53.02-44.46,11.91-88.89,23.96-133.35,35.87-2.89.78-3.96,1.81-3.94,4.98.15,26.24.15,52.49.07,78.73-.07,22.52,2.82,44.63,9.61,66.09,21.17,66.94,64.25,114.23,128.53,142.25,1.44.63,3.66.36,5.19-.28,32.96-13.8,61.15-34.23,84.19-61.54,30.97-36.71,48.72-79.07,52.39-126.97,1.33-17.29.92-34.71,1.3-52.07Z"/>
      <path class="cls-1" d="M80.09,172.49c23.6,20.09,46.98,39.99,70.73,60.21,32.62-39.15,65.12-78.16,97.75-117.34,6.55,5.45,12.86,10.71,19.47,16.23-38.07,45.71-76,91.24-114.15,137.05-30.12-25.65-60.04-51.12-90.24-76.84,5.53-6.5,10.9-12.81,16.43-19.31Z"/>
    </g>
  </g>
</svg>