<?xml version="1.0" encoding="UTF-8"?>
<svg id="Calque_1" data-name="Calque 1" xmlns="http://www.w3.org/2000/svg" viewBox="0 0 384.08 384.24">
  <defs>
    <style>
      .cls-1 {
        fill: #0f2238;
      }

      .cls-1{
        stroke-width: 0px;
      }
    </style>
  </defs>
  <path class="cls-1" d="M209.02,383.44c-56.37,5.31-114.38-16.01-153.88-56.59C-.85,271.24-16.13,180.51,18.63,109.64,55.66,28.57,152.55-17.06,238.65,5.96c113.85,28.18,176.16,153.06,130.22,260.97-26.54,64.37-90.26,110.86-159.65,116.49l-.2.02ZM359.46,192.6c.65-87.31-68.96-162.17-156.12-167.68C38.75,15.95-39.46,219.11,87.67,323.5c63.74,51.63,159.28,47.69,218.78-8.68,33.5-31.07,53.07-76.34,53.01-122.02v-.2Z"/>
  
  <path class="cls-1" d="M203.94,149.62c0,2.4,0,3.73,0,5.07,0,36.61-.11,73.21.11,109.82.04,6.12-4.35,10.61-8.52,11.55-6.92,1.56-12.62-1.28-14.91-7.25-.47-1.21-.53-2.64-.53-3.97-.03-36.73-.02-73.46-.02-110.19,0-1.33,0-2.66,0-4.77-1.51,1.43-2.49,2.3-3.41,3.22-11.93,11.92-23.98,23.73-35.72,35.83-4.9,5.05-17.46,4.69-20.18-3.75-1.38-4.29-1.19-10.14,2.22-13.53,20.19-20.09,40.29-40.28,60.47-60.38,4.46-4.45,12.69-4.43,17.16.03,20.18,20.11,40.27,40.3,60.47,60.38,3.38,3.36,3.7,9.51,2.13,13.52-1.84,4.69-5.44,6.93-10.68,7.02-4.31.07-7.53-1.38-10.51-4.41-12.36-12.55-24.85-24.96-38.07-38.19Z"/>
</svg>