<?xml version="1.0" encoding="UTF-8"?>
<svg id="Mode_Isolation" data-name="Mode Isolation" xmlns="http://www.w3.org/2000/svg" viewBox="0 0 37.83 38.33">
  <defs>
    <style>
      .cls-1 {
        fill: #6dd6dc;
        stroke-width: 0px;
      }
    </style>
  </defs>
  <path class="cls-1" d="M18.92,3.68c3.26,0,5.92,2.65,5.92,5.92s-2.65,5.92-5.92,5.92-5.92-2.65-5.92-5.92,2.65-5.92,5.92-5.92M18.92,19.18c5.29,0,9.59-4.3,9.59-9.59S24.21,0,18.92,0s-9.59,4.3-9.59,9.59,4.3,9.59,9.59,9.59"/>
  <path class="cls-1" d="M8.95,28.21c-1.02,0-1.84.82-1.84,1.84v6.45c0,1.01.82,1.84,1.84,1.84s1.84-.82,1.84-1.84v-6.45c0-1.01-.82-1.84-1.84-1.84"/>
  <path class="cls-1" d="M28.52,18.16h0c-.06,0-.12,0-.18,0-.03,0-.06,0-.09.01-.03,0-.06,0-.09.01-.03,0-.06.01-.1.02-.03,0-.05.01-.08.02-.03,0-.06.02-.09.03-.03,0-.05.02-.08.03-.03.01-.05.02-.08.04-.03.01-.05.02-.08.04-.03.01-.05.03-.08.04-.03.02-.05.03-.08.05-.03.02-.05.04-.08.06-.02.02-.04.03-.06.05-.05.04-.09.08-.14.12-2.22,2.22-5.17,3.45-8.3,3.45s-6.08-1.23-8.3-3.45c-.04-.04-.09-.08-.14-.12-.02-.02-.04-.03-.07-.05-.02-.02-.05-.04-.08-.06-.03-.02-.06-.04-.09-.05-.02-.01-.04-.03-.07-.04-.03-.02-.06-.03-.09-.04-.02-.01-.05-.02-.07-.03-.03-.01-.06-.02-.09-.03-.03,0-.05-.02-.08-.03-.03,0-.06-.02-.09-.02-.03,0-.05-.02-.08-.02-.04,0-.08-.01-.11-.02-.02,0-.04,0-.07-.01-.06,0-.12,0-.18,0-5.14,0-9.31,4.18-9.31,9.31v9.02c0,1.01.82,1.84,1.84,1.84s1.84-.82,1.84-1.84v-9.02c0-2.88,2.17-5.26,4.95-5.6,2.83,2.55,6.46,3.94,10.29,3.94s7.45-1.39,10.29-3.94c2.79.34,4.96,2.72,4.96,5.6v9.02c0,1.01.82,1.84,1.84,1.84s1.84-.82,1.84-1.84v-9.02c0-5.13-4.18-9.31-9.31-9.31"/>
  <path class="cls-1" d="M29.07,28.21c-1.02,0-1.84.82-1.84,1.84v6.45c0,1.01.82,1.84,1.84,1.84s1.84-.82,1.84-1.84v-6.45c0-1.01-.82-1.84-1.84-1.84"/>
</svg>